<?xml version="1.0" encoding="iso-8859-1"?>
<!-- Generator: Adobe Illustrator 18.0.0, SVG Export Plug-In . SVG Version: 6.00 Build 0)  -->
<!DOCTYPE svg PUBLIC "-//W3C//DTD SVG 1.1//EN" "http://www.w3.org/Graphics/SVG/1.1/DTD/svg11.dtd">
<svg version="1.1" id="Capa_1" xmlns="http://www.w3.org/2000/svg" xmlns:xlink="http://www.w3.org/1999/xlink" x="0px" y="0px"
	 viewBox="0 0 213.138 213.138" style="enable-background:new 0 0 213.138 213.138;" xml:space="preserve">
<g>
	<path d="M106.568,213.138c51.215,0,92.881-41.664,92.881-92.877v-16.782c0-33.548-27.296-60.842-60.848-60.842
		c-7.75,0-15.278,1.442-22.317,4.227C122.267,28.455,139.708,15,159.908,15c4.143,0,7.5-3.358,7.5-7.5c0-4.143-3.357-7.5-7.5-7.5
		c-15.98,0-31.077,6.15-42.51,17.318c-2.971,2.901-5.6,6.063-7.883,9.426C101.163,10.861,84.505,0,65.349,0
		c-4.143,0-7.5,3.357-7.5,7.5c0,13.721,5.57,26.164,14.567,35.19c-32.571,1.12-58.728,27.949-58.728,60.788v16.782
		C13.689,171.474,55.354,213.138,106.568,213.138z M99.161,41.312c-12.361-3.133-22.115-12.887-25.248-25.248
		C86.274,19.196,96.028,28.95,99.161,41.312z M28.689,103.479c0-25.277,20.564-45.842,45.842-45.842
		c10.011,0,19.53,3.18,27.529,9.195c2.669,2.007,6.345,2.008,9.014,0.001c8.005-6.017,17.524-9.196,27.527-9.196
		c25.28,0,45.848,20.564,45.848,45.842v16.782c0,42.941-34.938,77.877-77.881,77.877c-42.942,0-77.879-34.936-77.879-77.877V103.479
		z"/>
</g>
<g>
</g>
<g>
</g>
<g>
</g>
<g>
</g>
<g>
</g>
<g>
</g>
<g>
</g>
<g>
</g>
<g>
</g>
<g>
</g>
<g>
</g>
<g>
</g>
<g>
</g>
<g>
</g>
<g>
</g>
</svg>
